<?xml version="1.0" encoding="UTF-8" standalone="no"?>
<svg
        xmlns:osb="http://www.openswatchbook.org/uri/2009/osb"
        xmlns:dc="http://purl.org/dc/elements/1.1/"
        xmlns:cc="http://creativecommons.org/ns#"
        xmlns:rdf="http://www.w3.org/1999/02/22-rdf-syntax-ns#"
        xmlns="http://www.w3.org/2000/svg"
        xmlns:xlink="http://www.w3.org/1999/xlink"
        id="svg22168"
        version="1.1"
        stroke="black"
        stroke-linecap="square"
        stroke-width="0.5"
        viewBox="0 0 300 75"
        height="572"
        width="1600">
  <metadata
     id="metadata22172">
    <rdf:RDF>
      <cc:Work
         rdf:about="">
        <dc:format>image/svg+xml</dc:format>
        <dc:type
           rdf:resource="http://purl.org/dc/dcmitype/StillImage" />
        <dc:title/>
      </cc:Work>
    </rdf:RDF>
  </metadata>
  <defs
     id="defs22165">
    <linearGradient
       id="linearGradient13402">
      <stop
         style="stop-color:#1c2789;stop-opacity:1;"
         offset="0"
         id="stop13406" />
      <stop
         style="stop-color:#1c2789;stop-opacity:0;"
         offset="1"
         id="stop13408" />
    </linearGradient>
    <linearGradient
       osb:paint="solid"
       id="linearGradient7695">
      <stop
         id="stop7693"
         offset="0"
         style="stop-color:#de00ff;stop-opacity:1;" />
    </linearGradient>
    <linearGradient
       osb:paint="solid"
       id="linearGradient7687">
      <stop
         id="stop7685"
         offset="0"
         style="stop-color:#de00ff;stop-opacity:1;" />
    </linearGradient>
    <linearGradient
       osb:paint="solid"
       id="linearGradient6486">
      <stop
         id="stop6484"
         offset="0"
         style="stop-color:#fcb3f4;stop-opacity:1;" />
    </linearGradient>
    <linearGradient
       osb:paint="solid"
       id="linearGradient1349">
      <stop
         id="stop1347"
         offset="0"
         style="stop-color:#000000;stop-opacity:1;" />
    </linearGradient>
    <linearGradient
            y2="37.337898"
       x2="153.74997"
       y1="-16.287102"
       x1="153.75"
       id="linearGradient13404"
       xlink:href="#linearGradient13402" />
    <linearGradient
       y2="37.337898"
       x2="153.74997"
       y1="-16.287102"
       x1="153.75"
       id="linearGradient7338"
       xlink:href="#linearGradient13402" />
  </defs>
  <g
     style="display:inline"
     id="layer4">
    <path
       id="path1470-67-5"
       d="m 0,-16.261597 0.02087402,53.548462 9.99609398,-10.383544 9.996459,4.153564 9.996094,-10.383546 9.99646,22.843506 9.996461,-14.536742 4.090942,1.699584 5.905517,2.453614 9.996094,-20.767091 9.996459,4.153565 9.996462,-2.076782 9.996093,8.306762 9.996461,-14.5367435 9.99646,31.1506355 9.99646,2.076781 9.99609,6.229982 9.99646,16.613526 9.99646,4.153564 9.99646,-2.076782 9.9961,-4.153198 9.99645,-8.30713 9.99647,4.153564 19.99254,-12.460326 9.99647,10.383544 9.99645,4.153566 9.9961,-10.383546 19.99292,-31.150635 9.99609,6.22998 9.99647,-14.536742 9.99645,-4.1535654 L 300,-16.261597 Z m 17.671143,9.1776124 h 2.722411 v 0.5625 h -2.722411 z m 0,9.375 h 2.722411 v 0.5624999 h -2.722411 z m 0,9.3749996 h 2.722411 v 0.5625 h -2.722411 z m 0,9.375 h 2.722411 v 0.5625 h -2.722411 z"
       style="display:inline;fill:#1c2789;fill-opacity:1;stroke:none;stroke-width:1.5;stroke-linecap:butt;stroke-linejoin:miter;stroke-miterlimit:5;stroke-dasharray:none;stroke-dashoffset:0;stroke-opacity:1;paint-order:normal" />
    <path
       id="path1443-3"
       transform="matrix(0.1875,0,0,0.1875,0,-16.125)"
       d="M 1599.5332 124.86719 L 1549.9375 145.46875 L 1494.5 226.08398 L 1441.334 192.94727 L 1337.4277 354.84375 L 1281.041 413.41602 L 1223.0625 389.32227 L 1172.1152 336.40625 L 1066.9062 401.97852 L 1014.0625 380.02148 L 962.72852 422.67773 L 908.125 445.36523 L 852.57227 456.90625 L 795.91602 433.36523 L 742.35352 344.33398 L 691.05273 312.36523 L 635.49023 300.82227 L 584.6875 142.52148 L 534.40625 215.66602 L 478.41602 169.13477 L 426.0625 180.00977 L 376.08398 159.25 L 322.77148 270.00977 L 286.32227 254.86523 L 268.75 247.5625 L 212.25977 329.70898 L 158.25 206.30273 L 108.13477 258.35352 L 54.822266 236.20898 L 4.1972656 288.79102 L 0.10742188 293.03906 L 0 572 L 1600 572 L 1599.5332 124.86719 z M 94.246094 297.96484 L 108.76562 297.96484 L 108.76562 300.96484 L 94.246094 300.96484 L 94.246094 297.96484 z M 94.246094 347.96484 L 108.76562 347.96484 L 108.76562 350.96484 L 94.246094 350.96484 L 94.246094 347.96484 z M 94.246094 397.96484 L 108.76562 397.96484 L 108.76562 400.96484 L 94.246094 400.96484 L 94.246094 397.96484 z M 94.199219 447.94727 L 108.7207 447.94727 L 108.7207 450.94727 L 94.199219 450.94727 L 94.199219 447.94727 z M 94.199219 497.94727 L 108.7207 497.94727 L 108.7207 500.94727 L 94.199219 500.94727 L 94.199219 497.94727 z M 799.02344 513.2207 L 802.02344 513.2207 L 802.02344 527.74414 L 799.02344 527.74414 L 799.02344 513.2207 z M 899.02344 513.2207 L 902.02344 513.2207 L 902.02344 527.74414 L 899.02344 527.74414 L 899.02344 513.2207 z M 999.02344 513.2207 L 1002.0234 513.2207 L 1002.0234 527.74414 L 999.02344 527.74414 L 999.02344 513.2207 z M 199.0332 513.23828 L 202.0332 513.23828 L 202.0332 527.75977 L 199.0332 527.75977 L 199.0332 513.23828 z M 299.0332 513.23828 L 302.0332 513.23828 L 302.0332 527.75977 L 299.0332 527.75977 L 299.0332 513.23828 z M 399.0332 513.23828 L 402.0332 513.23828 L 402.0332 527.75977 L 399.0332 527.75977 L 399.0332 513.23828 z M 1099.0156 513.23828 L 1102.0156 513.23828 L 1102.0156 527.75977 L 1099.0156 527.75977 L 1099.0156 513.23828 z M 1199.0156 513.23828 L 1202.0156 513.23828 L 1202.0156 527.75977 L 1199.0156 527.75977 L 1199.0156 513.23828 z M 1299.0156 513.23828 L 1302.0156 513.23828 L 1302.0156 527.75977 L 1299.0156 527.75977 L 1299.0156 513.23828 z M 1399.0625 513.23828 L 1402.0625 513.23828 L 1402.0625 527.75977 L 1399.0625 527.75977 L 1399.0625 513.23828 z M 1498.9375 513.23828 L 1501.9375 513.23828 L 1501.9375 527.75977 L 1498.9375 527.75977 L 1498.9375 513.23828 z M 499.02344 513.25391 L 502.02344 513.25391 L 502.02344 527.77734 L 499.02344 527.77734 L 499.02344 513.25391 z M 599.02344 513.25391 L 602.02344 513.25391 L 602.02344 527.77734 L 599.02344 527.77734 L 599.02344 513.25391 z M 699.02344 513.25391 L 702.02344 513.25391 L 702.02344 527.77734 L 699.02344 527.77734 L 699.02344 513.25391 z M 1574.4609 529.13672 C 1574.7107 529.11016 1574.9387 529.1862 1575.1426 529.36328 C 1575.5594 529.72531 1575.6846 530.15842 1575.5215 530.66211 C 1575.4671 530.84312 1575.3953 531.01637 1575.3047 531.18164 C 1575.2231 531.33904 1575.1329 531.49689 1575.0332 531.6543 C 1574.8701 531.91401 1574.6942 532.16423 1574.5039 532.4082 C 1574.3227 532.64431 1574.1264 532.88108 1573.918 533.11719 C 1573.0753 534.07734 1572.1522 534.94742 1571.1465 535.72656 C 1571.074 535.78165 1571.0233 535.83938 1570.9961 535.90234 C 1570.8692 536.21715 1570.7467 536.53285 1570.6289 536.84766 C 1570.5111 537.15459 1570.3905 537.46064 1570.2637 537.76758 C 1570.2456 537.84628 1570.2271 537.90211 1570.209 537.93359 L 1570.2363 537.94531 L 1570.3711 537.76758 C 1570.7516 537.24815 1571.1587 536.765 1571.5938 536.31641 C 1572.0376 535.86781 1572.5418 535.45394 1573.1035 535.07617 C 1573.3119 534.93451 1573.5293 534.81325 1573.7559 534.71094 C 1573.9824 534.60863 1574.2275 534.53355 1574.4902 534.48633 C 1574.6443 534.45485 1574.8018 534.47024 1574.9648 534.5332 C 1575.1732 534.62764 1575.3327 534.74701 1575.4414 534.88867 C 1575.5592 535.02246 1575.6218 535.19186 1575.6309 535.39648 C 1575.6399 535.49093 1575.6399 535.58909 1575.6309 535.69141 L 1575.6035 535.97461 C 1575.6035 536.00609 1575.5989 536.03688 1575.5898 536.06836 C 1575.5898 536.09197 1575.5852 536.12661 1575.5762 536.17383 C 1575.6305 536.15022 1575.6813 536.13482 1575.7266 536.12695 L 1575.8613 536.08008 C 1575.9519 536.0486 1576.0395 536.01781 1576.1211 535.98633 C 1576.2117 535.95485 1576.302 535.92595 1576.3926 535.90234 C 1576.5557 535.85512 1576.6921 535.86862 1576.8008 535.93945 C 1576.9095 536.01815 1576.9049 536.08743 1576.7871 536.15039 L 1576.6777 536.19922 C 1576.6506 536.20709 1576.6183 536.21862 1576.582 536.23438 C 1576.4008 536.29733 1576.2249 536.36276 1576.0527 536.43359 C 1575.8806 536.50443 1575.7027 536.57565 1575.5215 536.64648 C 1575.4218 536.67796 1575.35 536.74534 1575.3047 536.84766 C 1575.1778 537.14672 1575.025 537.42968 1574.8438 537.69727 C 1574.6624 537.96485 1574.4662 538.22857 1574.2578 538.48828 C 1573.9044 538.92901 1573.4604 539.30629 1572.9258 539.62109 C 1572.7083 539.74702 1572.4817 539.82979 1572.2461 539.86914 C 1572.0196 539.90849 1571.7764 539.8854 1571.5137 539.79883 C 1571.269 539.72013 1571.1142 539.61811 1571.0508 539.49219 C 1570.9874 539.36627 1571.0058 539.19686 1571.1055 538.98438 C 1571.1598 538.85844 1571.227 538.74489 1571.3086 538.64258 C 1571.3992 538.54027 1571.494 538.4421 1571.5938 538.34766 C 1571.9108 538.04859 1572.2555 537.78103 1572.627 537.54492 C 1573.0075 537.30095 1573.4074 537.08341 1573.8242 536.89453 C 1574.0689 536.79222 1574.2448 536.63052 1574.3535 536.41016 C 1574.4351 536.24488 1574.5207 536.07934 1574.6113 535.91406 C 1574.7019 535.74092 1574.7711 535.56383 1574.8164 535.38281 C 1574.8798 535.13884 1574.8963 534.98679 1574.8691 534.92383 C 1574.851 534.86087 1574.7258 534.85317 1574.4902 534.90039 C 1574.3362 534.93974 1574.186 534.98977 1574.041 535.05273 C 1573.9051 535.10783 1573.7687 535.1752 1573.6328 535.25391 C 1573.2885 535.45853 1572.9716 535.68376 1572.6816 535.92773 C 1572.3917 536.17171 1572.1163 536.42962 1571.8535 536.70508 C 1571.5092 537.05923 1571.1969 537.43462 1570.916 537.82812 C 1570.6442 538.21376 1570.3853 538.61028 1570.1406 539.01953 L 1570.0039 539.25586 L 1569.8965 539.49219 C 1569.8421 539.61024 1569.7453 539.65642 1569.6094 539.63281 C 1569.5641 539.62494 1569.5153 539.61724 1569.4609 539.60938 C 1569.4066 539.60938 1569.3559 539.60168 1569.3105 539.58594 C 1569.1475 539.53872 1569.0341 539.48099 1568.9707 539.41016 C 1568.9073 539.33932 1568.8862 539.22767 1568.9043 539.07812 C 1568.9224 538.88924 1568.9481 538.7006 1568.9844 538.51172 C 1569.0116 538.32284 1569.0483 538.13804 1569.0938 537.95703 C 1569.1661 537.6501 1569.2381 537.34789 1569.3105 537.04883 C 1569.383 536.74189 1569.466 536.43774 1569.5566 536.13867 C 1569.6835 535.73729 1569.8225 535.34462 1569.9766 534.95898 C 1570.1397 534.56548 1570.3175 534.17665 1570.5078 533.79102 C 1570.7887 533.23224 1571.0872 532.68746 1571.4043 532.16016 C 1571.7305 531.62499 1572.0981 531.11105 1572.5059 530.61523 C 1572.669 530.41848 1572.8357 530.22789 1573.0078 530.04688 C 1573.189 529.85798 1573.388 529.6867 1573.6055 529.5293 C 1573.8139 529.38763 1574.0129 529.27597 1574.2031 529.19727 C 1574.2915 529.16579 1574.3777 529.14557 1574.4609 529.13672 z M 1575.0098 529.65625 C 1574.9708 529.64889 1574.9262 529.65189 1574.877 529.66406 C 1574.8113 529.68029 1574.7362 529.71252 1574.6523 529.76367 C 1574.5799 529.81089 1574.508 529.86288 1574.4355 529.91797 C 1574.3631 529.97306 1574.2939 530.03274 1574.2305 530.0957 C 1574.0946 530.23737 1573.9647 530.37787 1573.8379 530.51953 C 1573.711 530.66119 1573.5885 530.81135 1573.4707 530.96875 C 1573.1536 531.39374 1572.867 531.83455 1572.6133 532.29102 C 1572.3686 532.73961 1572.1374 533.19966 1571.9199 533.67188 L 1571.3906 534.85352 C 1571.3997 534.85352 1571.4135 534.86121 1571.4316 534.87695 L 1571.4863 534.82812 L 1571.541 534.78125 L 1573.2129 533.16406 C 1573.4666 532.91222 1573.7097 532.6562 1573.9453 532.39648 C 1574.1809 532.1289 1574.4029 531.84979 1574.6113 531.55859 C 1574.7291 531.38545 1574.8378 531.21221 1574.9375 531.03906 C 1575.0372 530.85805 1575.1156 530.66556 1575.1699 530.46094 C 1575.188 530.38224 1575.1999 530.30331 1575.209 530.22461 C 1575.2271 530.14591 1575.2317 530.06698 1575.2227 529.98828 C 1575.1972 529.78907 1575.1267 529.67834 1575.0098 529.65625 z M 1565.666 529.83594 C 1565.7929 529.8202 1565.9181 529.84714 1566.0449 529.91797 C 1566.1718 529.9888 1566.2778 530.07542 1566.3594 530.17773 C 1566.4409 530.28005 1566.4759 530.40131 1566.4668 530.54297 C 1566.4577 530.78694 1566.3859 531.03526 1566.25 531.28711 C 1565.8241 532.13708 1565.2898 532.91669 1564.6465 533.625 C 1564.4109 533.87684 1564.1658 534.12132 1563.9121 534.35742 C 1563.6675 534.59353 1563.3993 534.8168 1563.1094 535.0293 C 1563.055 535.06865 1563.0109 535.12448 1562.9746 535.19531 C 1562.739 535.73835 1562.5308 536.28503 1562.3496 536.83594 C 1562.1684 537.37898 1562.0043 537.93335 1561.8594 538.5 L 1561.8594 538.64258 L 1562.1309 538.40625 C 1562.448 538.09931 1562.7438 537.77976 1563.0156 537.44922 C 1563.2965 537.11867 1563.5673 536.77603 1563.8301 536.42188 C 1563.8573 536.38252 1563.8849 536.34789 1563.9121 536.31641 C 1563.9393 536.27706 1563.9716 536.23857 1564.0078 536.19922 C 1564.0441 536.16774 1564.0836 536.13884 1564.1289 536.11523 C 1564.1742 536.08375 1564.2203 536.06066 1564.2656 536.04492 C 1564.329 536.02131 1564.3778 536.02516 1564.4141 536.05664 C 1564.4594 536.08025 1564.4824 536.12454 1564.4824 536.1875 C 1564.4643 536.2662 1564.4366 536.33163 1564.4004 536.38672 C 1564.3188 536.52051 1564.2332 536.65142 1564.1426 536.77734 C 1564.061 536.90327 1563.9708 537.02837 1563.8711 537.1543 L 1563.2461 537.93359 C 1563.0377 538.19331 1562.8249 538.44933 1562.6074 538.70117 C 1562.4443 538.89006 1562.2592 539.0633 1562.0508 539.2207 C 1561.9602 539.2994 1561.8515 539.34944 1561.7246 539.37305 C 1561.6068 539.39666 1561.4889 539.39666 1561.3711 539.37305 C 1561.2533 539.34944 1561.1446 539.3071 1561.0449 539.24414 C 1560.9453 539.17331 1560.8715 539.08284 1560.8262 538.97266 C 1560.7537 538.78377 1560.7188 538.59513 1560.7188 538.40625 C 1560.7188 538.26459 1560.7234 538.12213 1560.7324 537.98047 C 1560.7505 537.83094 1560.7644 537.68274 1560.7734 537.5332 C 1560.7916 537.49385 1560.7869 537.44956 1560.7598 537.40234 C 1560.7235 537.44169 1560.6912 537.47633 1560.6641 537.50781 C 1560.6369 537.53929 1560.6046 537.57204 1560.5684 537.60352 C 1560.3781 537.82388 1560.1699 538.02791 1559.9434 538.2168 C 1559.7259 538.40568 1559.49 538.58277 1559.2363 538.74805 C 1559.1185 538.82675 1558.996 538.89413 1558.8691 538.94922 C 1558.7514 539.00431 1558.6215 539.04664 1558.4766 539.07812 C 1558.2682 539.13323 1558.0507 539.13706 1557.8242 539.08984 C 1557.4799 539.01114 1557.2256 538.85909 1557.0625 538.63086 C 1556.8903 538.39476 1556.8258 538.11949 1556.8711 537.80469 C 1556.9164 537.54497 1556.9994 537.3005 1557.1172 537.07227 C 1557.235 536.83616 1557.3648 536.60323 1557.5098 536.375 C 1557.691 536.07593 1557.9058 535.80452 1558.1504 535.56055 C 1558.4041 535.31657 1558.6749 535.08945 1558.9648 534.87695 C 1559.1461 534.74316 1559.3358 534.63149 1559.5352 534.54492 C 1559.7345 534.45835 1559.9427 534.38523 1560.1602 534.32227 C 1560.4139 534.25143 1560.6497 534.24177 1560.8672 534.29688 C 1561.0846 534.3441 1561.2929 534.44422 1561.4922 534.59375 L 1561.6426 534.71094 L 1561.6562 534.71094 L 1562.2949 533.50586 C 1562.7933 532.56144 1563.4271 531.68178 1564.1973 530.86328 C 1564.3151 530.72949 1564.4422 530.60628 1564.5781 530.49609 C 1564.714 530.37804 1564.855 530.26448 1565 530.1543 C 1565.0453 530.11495 1565.0895 530.07835 1565.1348 530.04688 L 1565.2988 529.95312 C 1565.4166 529.89017 1565.5392 529.85168 1565.666 529.83594 z M 1565.9785 530.42578 C 1565.897 530.46513 1565.7836 530.5633 1565.6387 530.7207 C 1565.4937 530.87024 1565.3343 531.05503 1565.1621 531.27539 C 1564.999 531.49575 1564.8277 531.73638 1564.6465 531.99609 C 1564.4743 532.24794 1564.3103 532.50011 1564.1562 532.75195 C 1564.0113 532.99593 1563.8841 533.22305 1563.7754 533.43555 C 1563.6757 533.64804 1563.6131 533.81744 1563.5859 533.94336 L 1563.5996 533.94336 C 1563.6359 533.91975 1563.6681 533.89281 1563.6953 533.86133 C 1564.0668 533.52291 1564.4022 533.16488 1564.7012 532.78711 C 1565.0092 532.40934 1565.2939 532.01472 1565.5566 531.60547 C 1565.611 531.5189 1565.6571 531.43227 1565.6934 531.3457 C 1565.7387 531.25126 1565.7828 531.16079 1565.8281 531.07422 C 1565.8734 530.97191 1565.9103 530.86604 1565.9375 530.75586 C 1565.9737 530.64568 1565.9876 530.53596 1565.9785 530.42578 z M 1550.373 531.17773 C 1550.441 531.18364 1550.5161 531.20097 1550.5977 531.22852 C 1550.7336 531.27574 1550.8699 531.34696 1551.0059 531.44141 C 1551.0783 531.4965 1551.1152 531.55038 1551.1152 531.60547 C 1551.1243 531.65269 1551.1059 531.72007 1551.0605 531.80664 L 1550.7754 532.26758 L 1551.9023 532.36133 C 1552.0292 532.37707 1552.1517 532.39631 1552.2695 532.41992 C 1552.3964 532.43566 1552.5235 532.45686 1552.6504 532.48047 C 1552.9131 532.54343 1553.1352 532.66854 1553.3164 532.85742 C 1553.3436 532.89677 1553.3666 532.93526 1553.3848 532.97461 C 1553.4119 533.00609 1553.4073 533.04653 1553.3711 533.09375 C 1553.3258 533.18032 1553.2309 533.23035 1553.0859 533.24609 L 1552.8672 533.24609 C 1552.7947 533.24609 1552.7229 533.2384 1552.6504 533.22266 C 1552.2789 533.18331 1551.9066 533.16021 1551.5352 533.15234 C 1551.1637 533.1366 1550.7888 533.13276 1550.4082 533.14062 C 1550.3991 533.14062 1550.3576 533.14832 1550.2852 533.16406 C 1550.0315 533.65201 1549.7837 534.14096 1549.5391 534.62891 C 1549.2944 535.10898 1549.0632 535.59598 1548.8457 536.0918 C 1548.6373 536.58762 1548.4456 537.09196 1548.2734 537.60352 C 1548.1013 538.1072 1547.9669 538.62309 1547.8672 539.15039 C 1547.9216 539.13465 1547.9611 539.10961 1547.9883 539.07812 C 1548.0155 539.04665 1548.0385 539.01585 1548.0566 538.98438 L 1549.375 537.14258 C 1549.4747 537.01666 1549.5649 536.89156 1549.6465 536.76562 C 1549.728 536.6397 1549.8183 536.50879 1549.918 536.375 C 1550.0176 536.23334 1550.1494 536.14287 1550.3125 536.10352 C 1550.3578 536.08778 1550.4039 536.08008 1550.4492 536.08008 C 1550.5036 536.08008 1550.5431 536.09932 1550.5703 536.13867 C 1550.6066 536.17802 1550.6204 536.21846 1550.6113 536.25781 C 1550.6023 536.29716 1550.5884 536.33565 1550.5703 536.375 L 1550.1094 537.0957 L 1548.9668 538.92578 C 1548.8399 539.11466 1548.7128 539.29946 1548.5859 539.48047 C 1548.4591 539.65361 1548.32 539.82686 1548.166 540 C 1547.8851 540.29907 1547.5405 540.41648 1547.1328 540.35352 C 1546.8972 540.32204 1546.7516 540.20462 1546.6973 540 C 1546.6429 539.69306 1546.6292 539.37736 1546.6562 539.05469 C 1546.7017 538.51165 1546.7918 537.97652 1546.9277 537.44922 C 1547.0636 536.92192 1547.2369 536.39834 1547.4453 535.87891 C 1547.6084 535.45392 1547.7889 535.04201 1547.9883 534.64062 C 1548.1876 534.23925 1548.3958 533.83308 1548.6133 533.42383 C 1548.6314 533.40022 1548.6498 533.37328 1548.668 533.3418 C 1548.6861 533.31032 1548.7045 533.26988 1548.7227 533.22266 C 1548.5867 533.2384 1548.455 533.2519 1548.3281 533.25977 C 1548.2103 533.26764 1548.097 533.27918 1547.9883 533.29492 C 1547.7527 533.34214 1547.5768 533.27091 1547.459 533.08203 C 1547.4227 533.01907 1547.3905 532.95169 1547.3633 532.88086 C 1547.3361 532.81003 1547.3315 532.73495 1547.3496 532.65625 C 1547.3496 532.57755 1547.3681 532.52367 1547.4043 532.49219 C 1547.4315 532.46071 1547.494 532.43951 1547.5938 532.43164 C 1547.7296 532.4159 1547.8707 532.40435 1548.0156 532.39648 C 1548.1697 532.38861 1548.3245 532.37707 1548.4785 532.36133 C 1548.5963 532.35346 1548.7096 532.34576 1548.8184 532.33789 C 1548.9271 532.33002 1549.0358 532.32617 1549.1445 532.32617 C 1549.2442 532.3183 1549.3114 532.27597 1549.3477 532.19727 C 1549.4383 532.07134 1549.5239 531.94813 1549.6055 531.83008 C 1549.6961 531.70416 1549.791 531.57906 1549.8906 531.45312 C 1549.9903 531.31146 1550.0917 531.22484 1550.1914 531.19336 C 1550.2458 531.17762 1550.3051 531.17183 1550.373 531.17773 z M 1578.9668 532.61523 C 1579.2296 532.59949 1579.4424 532.65533 1579.6055 532.78125 C 1579.6508 532.81273 1579.6831 532.84737 1579.7012 532.88672 C 1579.7284 532.9182 1579.733 532.96634 1579.7148 533.0293 C 1579.588 533.38345 1579.4654 533.73185 1579.3477 534.07812 C 1579.2299 534.42441 1579.1119 534.77475 1578.9941 535.12891 C 1578.8945 535.40436 1578.818 535.68542 1578.7637 535.96875 C 1578.7093 536.2442 1578.6724 536.52332 1578.6543 536.80664 C 1578.6271 537.00339 1578.6456 537.20358 1578.709 537.4082 L 1578.8848 537.26562 C 1579.2653 536.87212 1579.633 536.4756 1579.9863 536.07422 C 1580.3397 535.66497 1580.652 535.23186 1580.9238 534.77539 C 1580.9782 534.68882 1581.0243 534.59835 1581.0605 534.50391 C 1581.0968 534.40946 1581.1363 534.31514 1581.1816 534.2207 C 1581.2541 534.01608 1581.326 533.81589 1581.3984 533.61914 L 1581.6445 533.0293 C 1581.6627 532.98995 1581.6765 532.95335 1581.6855 532.92188 L 1581.7383 532.82812 C 1581.8017 532.72582 1581.8985 532.68537 1582.0254 532.70898 C 1582.2428 532.74834 1582.4372 532.8465 1582.6094 533.00391 C 1582.6547 533.059 1582.6777 533.11868 1582.6777 533.18164 C 1582.6868 533.2446 1582.6822 533.30813 1582.6641 533.37109 C 1582.6369 533.50489 1582.6092 533.64154 1582.582 533.7832 C 1582.5548 533.917 1582.5226 534.05175 1582.4863 534.18555 C 1582.4138 534.60266 1582.3328 534.99919 1582.2422 535.37695 C 1582.2331 535.40843 1582.2285 535.44887 1582.2285 535.49609 C 1582.2376 535.49609 1582.2422 535.49994 1582.2422 535.50781 L 1582.2695 535.50781 L 1582.4043 535.36523 C 1582.4587 535.31801 1582.5094 535.26798 1582.5547 535.21289 L 1582.8262 534.92969 C 1582.9258 534.83525 1583.0253 534.73708 1583.125 534.63477 C 1583.1975 534.55606 1583.2785 534.52717 1583.3691 534.55078 C 1583.5685 534.57439 1583.6054 534.65717 1583.4785 534.79883 C 1583.4151 534.87753 1583.3479 534.95645 1583.2754 535.03516 L 1583.0566 535.24805 L 1582.1602 536.14453 C 1582.0605 536.25471 1581.9979 536.37408 1581.9707 536.5 C 1581.7986 537.16896 1581.6114 537.82535 1581.4121 538.4707 C 1581.2218 539.12392 1580.9998 539.77647 1580.7461 540.42969 C 1580.6736 540.6107 1580.5972 540.79164 1580.5156 540.97266 C 1580.4341 541.16154 1580.3484 541.34633 1580.2578 541.52734 C 1580.1491 541.73984 1580.0219 541.94198 1579.877 542.13086 C 1579.741 542.31974 1579.5882 542.50453 1579.416 542.68555 C 1579.271 542.83508 1579.107 542.96019 1578.9258 543.0625 C 1578.7446 543.17268 1578.541 543.24391 1578.3145 543.27539 C 1578.1785 543.299 1578.0468 543.30285 1577.9199 543.28711 C 1577.8021 543.27137 1577.6842 543.24443 1577.5664 543.20508 C 1577.358 543.13425 1577.2262 543.00334 1577.1719 542.81445 C 1577.0813 542.52326 1577.0813 542.2403 1577.1719 541.96484 C 1577.2534 541.76022 1577.3456 541.55619 1577.4453 541.35156 C 1577.5359 541.14694 1577.6446 540.9448 1577.7715 540.74805 C 1578.0342 540.31519 1578.3143 539.89558 1578.6133 539.48633 C 1578.9213 539.08495 1579.2475 538.68263 1579.5918 538.28125 C 1579.7368 538.10024 1579.8962 537.91545 1580.0684 537.72656 C 1580.1771 537.62425 1580.2443 537.50299 1580.2715 537.36133 C 1580.3077 537.22754 1580.3446 537.10047 1580.3809 536.98242 C 1580.4171 536.8565 1580.4566 536.72754 1580.502 536.59375 L 1580.502 536.53516 C 1580.502 536.51155 1580.5066 536.4788 1580.5156 536.43945 L 1580.3535 536.61719 C 1580.0998 536.92412 1579.8501 537.21093 1579.6055 537.47852 C 1579.5058 537.58083 1579.3971 537.66745 1579.2793 537.73828 C 1579.1706 537.80124 1579.0388 537.84168 1578.8848 537.85742 C 1578.6401 537.88103 1578.4135 537.85214 1578.2051 537.77344 C 1577.9967 537.68687 1577.8557 537.52517 1577.7832 537.28906 C 1577.7288 537.10805 1577.6893 536.93096 1577.6621 536.75781 C 1577.6349 536.5768 1577.6303 536.39201 1577.6484 536.20312 C 1577.7028 535.66009 1577.8023 535.13265 1577.9473 534.62109 C 1578.0922 534.10953 1578.282 533.59945 1578.5176 533.08789 L 1578.709 532.75586 C 1578.7815 532.66929 1578.8671 532.6231 1578.9668 532.61523 z M 1543.4395 533.79688 C 1543.598 533.79294 1543.7496 533.81026 1543.8945 533.84961 C 1544.1935 533.92044 1544.4736 534.06479 1544.7363 534.28516 C 1544.9175 534.42682 1545.0493 534.60006 1545.1309 534.80469 C 1545.1852 534.93061 1545.1898 535.04997 1545.1445 535.16016 C 1545.0992 535.28608 1545.0274 535.35535 1544.9277 535.37109 C 1544.8281 535.38683 1544.7266 535.34835 1544.627 535.25391 C 1544.5635 535.19882 1544.524 535.13913 1544.5059 535.07617 L 1544.4785 534.88867 C 1544.4604 534.77849 1544.4327 534.71111 1544.3965 534.6875 C 1544.3693 534.65602 1544.2929 534.63678 1544.166 534.62891 C 1544.0301 534.61317 1543.8983 534.62086 1543.7715 534.65234 C 1543.6446 534.68382 1543.5221 534.72616 1543.4043 534.78125 C 1543.1687 534.89143 1542.9559 535.01849 1542.7656 535.16016 C 1542.5754 535.29395 1542.3902 535.4383 1542.209 535.5957 C 1541.7741 535.99708 1541.411 536.43404 1541.1211 536.90625 C 1540.8402 537.37846 1540.6366 537.88665 1540.5098 538.42969 C 1540.5007 538.46904 1540.4915 538.50368 1540.4824 538.53516 L 1540.4824 538.64258 L 1540.4824 538.71289 C 1540.4824 538.7365 1540.487 538.76729 1540.4961 538.80664 L 1540.6465 538.68945 C 1540.9908 538.39039 1541.3123 538.07854 1541.6113 537.75586 C 1541.9103 537.43318 1542.2042 537.10405 1542.4941 536.76562 C 1542.6391 536.58461 1542.7965 536.39982 1542.9688 536.21094 C 1542.9958 536.17159 1543.019 536.13884 1543.0371 536.11523 C 1543.0643 536.08375 1543.0966 536.05681 1543.1328 536.0332 C 1543.2144 535.97024 1543.2862 535.90671 1543.3496 535.84375 C 1543.413 535.77292 1543.4684 535.69399 1543.5137 535.60742 C 1543.5862 535.48937 1543.7041 535.44319 1543.8672 535.4668 C 1543.9759 535.48254 1544.08 535.50948 1544.1797 535.54883 C 1544.2794 535.58818 1544.3696 535.64401 1544.4512 535.71484 C 1544.5871 535.81716 1544.624 535.93457 1544.5605 536.06836 C 1544.4518 536.3202 1544.3477 536.56853 1544.248 536.8125 C 1544.1484 537.05647 1544.0489 537.3048 1543.9492 537.55664 C 1543.9039 537.65895 1543.8624 537.76097 1543.8262 537.86328 C 1543.799 537.95772 1543.7667 538.05974 1543.7305 538.16992 L 1543.7852 538.19336 L 1543.9219 538.08789 L 1546.123 536.17383 C 1546.1502 536.15809 1546.1779 536.13884 1546.2051 536.11523 C 1546.2323 536.09162 1546.2626 536.07238 1546.2988 536.05664 C 1546.3623 536.00942 1546.4314 535.99403 1546.5039 536.00977 C 1546.5311 536.00977 1546.5568 536.01746 1546.584 536.0332 C 1546.6202 536.04894 1546.6433 536.06434 1546.6523 536.08008 C 1546.6705 536.10369 1546.6705 536.13063 1546.6523 536.16211 C 1546.6342 536.19359 1546.6158 536.21862 1546.5977 536.23438 C 1546.5161 536.32095 1546.4305 536.40372 1546.3398 536.48242 C 1546.2492 536.55325 1546.159 536.63023 1546.0684 536.7168 C 1545.7512 537.02373 1545.4343 537.33559 1545.1172 537.65039 C 1544.8091 537.95733 1544.4968 538.26338 1544.1797 538.57031 L 1543.5273 539.24414 C 1543.2374 539.53534 1542.9113 539.56612 1542.5488 539.33789 C 1542.4039 539.24345 1542.3393 539.10679 1542.3574 538.92578 C 1542.3755 538.8156 1542.394 538.70973 1542.4121 538.60742 C 1542.4302 538.50511 1542.4487 538.39729 1542.4668 538.28711 C 1542.4668 538.24776 1542.4806 538.17464 1542.5078 538.06445 L 1542.3438 538.2168 L 1541.2578 539.2793 C 1541.2125 539.31865 1541.1664 539.35524 1541.1211 539.38672 L 1540.998 539.49219 C 1540.8078 539.63385 1540.5831 539.66079 1540.3203 539.57422 C 1539.9579 539.4483 1539.7174 539.22502 1539.5996 538.90234 C 1539.5271 538.67411 1539.5042 538.42194 1539.5312 538.14648 C 1539.5767 537.76085 1539.6714 537.39127 1539.8164 537.03711 C 1539.9614 536.68295 1540.1465 536.34031 1540.373 536.00977 C 1540.5814 535.7107 1540.8035 535.42774 1541.0391 535.16016 C 1541.2837 534.8847 1541.5611 534.63253 1541.8691 534.4043 C 1542.0232 534.28624 1542.1853 534.18423 1542.3574 534.09766 C 1542.5386 534.00321 1542.735 533.92814 1542.9434 533.87305 C 1543.1155 533.82583 1543.2809 533.8008 1543.4395 533.79688 z M 1523.3262 533.82812 C 1523.4621 533.81435 1523.5919 533.82206 1523.7188 533.84961 C 1523.9724 533.89683 1524.2175 534.0027 1524.4531 534.16797 C 1524.5437 534.23093 1524.6202 534.29831 1524.6836 534.36914 C 1524.747 534.43997 1524.7885 534.53044 1524.8066 534.64062 C 1524.8157 534.75869 1524.788 534.86839 1524.7246 534.9707 C 1524.6249 535.15172 1524.5393 535.33651 1524.4668 535.52539 C 1524.3943 535.71427 1524.3363 535.91061 1524.291 536.11523 C 1524.2548 536.2569 1524.2548 536.4032 1524.291 536.55273 C 1524.3454 536.71014 1524.2762 536.76982 1524.0859 536.73047 C 1523.8957 536.69112 1523.7428 536.60065 1523.625 536.45898 C 1523.5072 536.31732 1523.438 536.14793 1523.4199 535.95117 C 1523.4109 535.77016 1523.4293 535.59306 1523.4746 535.41992 C 1523.5199 535.24678 1523.5706 535.07353 1523.625 534.90039 L 1523.6934 534.67578 C 1523.3581 534.81744 1523.0807 534.98684 1522.8633 535.18359 C 1522.2019 535.78172 1521.7485 536.4747 1521.5039 537.26172 C 1521.3771 537.63162 1521.3678 537.9935 1521.4766 538.34766 C 1521.5219 538.48932 1521.568 538.59903 1521.6133 538.67773 C 1521.6676 538.74857 1521.7256 538.7986 1521.7891 538.83008 C 1521.8525 538.85369 1521.9309 538.86334 1522.0215 538.85547 C 1522.1121 538.8476 1522.2208 538.8264 1522.3477 538.79492 C 1522.5289 538.75557 1522.7002 538.70169 1522.8633 538.63086 C 1523.0354 538.55216 1523.1995 538.46168 1523.3535 538.35938 C 1523.5619 538.23344 1523.7517 538.09485 1523.9238 537.94531 C 1524.105 537.79578 1524.281 537.63793 1524.4531 537.47266 L 1525.1055 536.83594 C 1525.3229 536.62344 1525.5219 536.39821 1525.7031 536.16211 C 1525.7484 536.09915 1525.8038 536.06066 1525.8672 536.04492 C 1525.9397 536.02918 1526.0069 536.04073 1526.0703 536.08008 C 1526.1972 536.14304 1526.2156 536.24506 1526.125 536.38672 C 1525.9438 536.62282 1525.7448 536.8673 1525.5273 537.11914 C 1525.2102 537.46543 1524.8749 537.81577 1524.5215 538.16992 C 1524.3131 538.38242 1524.0818 538.57106 1523.8281 538.73633 C 1523.5744 538.9016 1523.2944 539.04021 1522.9863 539.15039 C 1522.7961 539.21335 1522.6043 539.25184 1522.4141 539.26758 C 1522.2238 539.28332 1522.0248 539.26792 1521.8164 539.2207 C 1521.0734 539.04756 1520.6247 538.62214 1520.4707 537.94531 C 1520.4073 537.69347 1520.3908 537.44515 1520.418 537.20117 C 1520.4361 536.9572 1520.4895 536.71468 1520.5801 536.4707 C 1520.725 536.06146 1520.9194 535.67838 1521.1641 535.32422 C 1521.4087 534.97006 1521.721 534.65247 1522.1016 534.36914 C 1522.319 534.18813 1522.5872 534.04182 1522.9043 533.93164 C 1523.0493 533.87655 1523.1903 533.84191 1523.3262 533.82812 z M 1537.0586 533.83789 C 1537.1719 533.8497 1537.2773 533.87664 1537.377 533.91992 C 1537.5763 534.00649 1537.7542 534.13545 1537.9082 534.30859 C 1538.0079 534.41878 1538.0613 534.53429 1538.0703 534.65234 C 1538.0794 534.76253 1538.0655 534.87994 1538.0293 535.00586 C 1537.9478 535.30492 1537.8179 535.56864 1537.6367 535.79688 C 1537.0297 536.63111 1536.1949 537.22592 1535.1348 537.58008 L 1534.7129 537.69727 C 1534.6495 537.86254 1534.6007 538.02809 1534.5645 538.19336 C 1534.5282 538.35076 1534.519 538.51246 1534.5371 538.67773 C 1534.5371 538.87449 1534.5951 539.00345 1534.7129 539.06641 C 1534.8397 539.12937 1534.9946 539.14476 1535.1758 539.11328 C 1535.3661 539.0818 1535.5743 539.02022 1535.8008 538.92578 C 1536.0273 538.82347 1536.2493 538.71376 1536.4668 538.5957 C 1536.6843 538.46978 1536.8786 538.34657 1537.0508 538.22852 C 1537.232 538.10259 1537.3684 537.99673 1537.459 537.91016 C 1537.6946 537.72127 1537.9212 537.52494 1538.1387 537.32031 C 1538.3561 537.11569 1538.5505 536.88661 1538.7227 536.63477 C 1538.7861 536.54819 1538.8414 536.45772 1538.8867 536.36328 C 1538.9411 536.26097 1538.9945 536.1628 1539.0488 536.06836 C 1539.1123 535.95031 1539.2071 535.91182 1539.334 535.95117 C 1539.4699 535.99052 1539.5206 536.06945 1539.4844 536.1875 C 1539.4572 536.25046 1539.4295 536.31589 1539.4023 536.38672 C 1539.3752 536.44968 1539.3429 536.51321 1539.3066 536.57617 C 1539.0892 536.91459 1538.846 537.23799 1538.5742 537.54492 C 1538.3024 537.84399 1537.9927 538.11539 1537.6484 538.35938 C 1537.4129 538.54039 1537.1697 538.71363 1536.916 538.87891 C 1536.6714 539.03631 1536.4032 539.17296 1536.1133 539.29102 C 1535.9774 539.35398 1535.841 539.40596 1535.7051 539.44531 C 1535.5692 539.48466 1535.4255 539.5116 1535.2715 539.52734 C 1535.0721 539.54308 1534.8686 539.53539 1534.6602 539.50391 C 1534.4518 539.46456 1534.2554 539.39333 1534.0742 539.29102 C 1533.893 539.1887 1533.7401 539.05205 1533.6133 538.87891 C 1533.4774 538.70576 1533.3917 538.48823 1533.3555 538.22852 C 1533.3192 537.99241 1533.3238 537.76529 1533.3691 537.54492 C 1533.4144 537.31669 1533.4817 537.09146 1533.5723 536.87109 C 1533.7354 536.46972 1533.9436 536.09244 1534.1973 535.73828 C 1534.46 535.38412 1534.7493 535.04533 1535.0664 534.72266 C 1535.2114 534.57312 1535.3708 534.44417 1535.543 534.33398 C 1535.7151 534.21593 1535.9003 534.11196 1536.0996 534.02539 C 1536.1902 533.98604 1536.2851 533.9514 1536.3848 533.91992 C 1536.4935 533.88844 1536.5976 533.86535 1536.6973 533.84961 C 1536.8241 533.82993 1536.9453 533.82609 1537.0586 533.83789 z M 1554.5762 533.83789 C 1554.6894 533.8497 1554.7949 533.87664 1554.8945 533.91992 C 1555.0939 534.00649 1555.2718 534.13545 1555.4258 534.30859 C 1555.5254 534.41878 1555.5788 534.53429 1555.5879 534.65234 C 1555.597 534.76253 1555.5831 534.87994 1555.5469 535.00586 C 1555.4653 535.30492 1555.3336 535.56864 1555.1523 535.79688 C 1554.5453 536.63111 1553.7124 537.22592 1552.6523 537.58008 L 1552.2305 537.69727 C 1552.167 537.86254 1552.1183 538.02809 1552.082 538.19336 C 1552.0458 538.35076 1552.0366 538.51246 1552.0547 538.67773 C 1552.0547 538.87449 1552.1127 539.00345 1552.2305 539.06641 C 1552.3573 539.12937 1552.5121 539.14476 1552.6934 539.11328 C 1552.8836 539.0818 1553.0918 539.02022 1553.3184 538.92578 C 1553.5449 538.82347 1553.7669 538.71376 1553.9844 538.5957 C 1554.2018 538.46978 1554.3962 538.34657 1554.5684 538.22852 C 1554.7496 538.10259 1554.886 537.99673 1554.9766 537.91016 C 1555.2121 537.72127 1555.4389 537.52494 1555.6562 537.32031 C 1555.8738 537.11569 1556.0681 536.88661 1556.2402 536.63477 C 1556.3037 536.54819 1556.359 536.45772 1556.4043 536.36328 C 1556.4587 536.26097 1556.512 536.1628 1556.5664 536.06836 C 1556.6298 535.95031 1556.7247 535.91182 1556.8516 535.95117 C 1556.9875 535.99052 1557.0382 536.06945 1557.002 536.1875 C 1556.9748 536.25046 1556.9471 536.31589 1556.9199 536.38672 C 1556.8927 536.44968 1556.8605 536.51321 1556.8242 536.57617 C 1556.6068 536.91459 1556.3636 537.23799 1556.0918 537.54492 C 1555.82 537.84399 1555.5103 538.11539 1555.166 538.35938 C 1554.9304 538.54039 1554.6873 538.71363 1554.4336 538.87891 C 1554.189 539.03631 1553.9208 539.17296 1553.6309 539.29102 C 1553.4949 539.35398 1553.3586 539.40596 1553.2227 539.44531 C 1553.0867 539.48466 1552.9431 539.5116 1552.7891 539.52734 C 1552.5897 539.54308 1552.3861 539.53539 1552.1777 539.50391 C 1551.9693 539.46456 1551.773 539.39333 1551.5918 539.29102 C 1551.4106 539.1887 1551.2577 539.05205 1551.1309 538.87891 C 1550.9949 538.70576 1550.9073 538.48823 1550.8711 538.22852 C 1550.8349 537.99241 1550.8395 537.76529 1550.8848 537.54492 C 1550.9301 537.31669 1550.9992 537.09146 1551.0898 536.87109 C 1551.2529 536.46972 1551.4611 536.09244 1551.7148 535.73828 C 1551.9776 535.38412 1552.2669 535.04533 1552.584 534.72266 C 1552.729 534.57312 1552.8884 534.44417 1553.0605 534.33398 C 1553.2327 534.21593 1553.4179 534.11196 1553.6172 534.02539 C 1553.7078 533.98604 1553.8027 533.9514 1553.9023 533.91992 C 1554.0111 533.88844 1554.1152 533.86535 1554.2148 533.84961 C 1554.3417 533.82993 1554.4629 533.82609 1554.5762 533.83789 z M 1531.3535 533.91406 C 1531.4101 533.89832 1531.4744 533.90025 1531.5469 533.91992 C 1531.7734 533.96714 1531.9697 534.07686 1532.1328 534.25 C 1532.2144 534.34444 1532.219 534.45996 1532.1465 534.59375 C 1532.074 534.75902 1531.9956 534.92262 1531.9141 535.08789 C 1531.8416 535.25316 1531.7744 535.42256 1531.7109 535.5957 C 1531.6203 535.82394 1531.5393 536.05686 1531.4668 536.29297 C 1531.4034 536.5212 1531.3342 536.74833 1531.2617 536.97656 C 1531.2436 537.00804 1531.2344 537.04079 1531.2344 537.07227 C 1531.2344 537.10375 1531.2298 537.13454 1531.2207 537.16602 C 1531.2026 537.28407 1531.2349 537.37839 1531.3164 537.44922 C 1531.3526 537.47283 1531.3803 537.50557 1531.3984 537.54492 C 1531.4256 537.60001 1531.4256 537.65004 1531.3984 537.69727 C 1531.3713 537.73662 1531.3205 537.75971 1531.248 537.76758 C 1531.1665 537.78332 1531.0762 537.77562 1530.9766 537.74414 C 1530.8316 537.69692 1530.7044 537.63534 1530.5957 537.55664 C 1530.487 537.47007 1530.4059 537.36225 1530.3516 537.23633 C 1530.261 537.0317 1530.1984 536.82767 1530.1621 536.62305 C 1530.1259 536.41842 1530.1351 536.21054 1530.1895 535.99805 C 1530.2076 535.9587 1530.2148 535.92211 1530.2148 535.89062 L 1530.2422 535.77344 L 1530.2148 535.76172 L 1530.0801 535.90234 C 1530.0348 535.94169 1529.9887 535.98598 1529.9434 536.0332 C 1529.1823 536.84383 1528.4858 537.71775 1527.8516 538.6543 L 1526.709 540.33008 L 1526.6543 540.40039 C 1526.6181 540.46335 1526.5785 540.51919 1526.5332 540.56641 C 1526.4879 540.61363 1526.4141 540.62902 1526.3145 540.61328 C 1526.1967 540.59754 1526.0879 540.5706 1525.9883 540.53125 C 1525.8886 540.49977 1525.8076 540.44009 1525.7441 540.35352 C 1525.726 540.32204 1525.7168 540.28355 1525.7168 540.23633 C 1525.7168 540.19698 1525.7214 540.15654 1525.7305 540.11719 L 1525.9746 539.26758 C 1526.0562 538.97638 1526.1484 538.68958 1526.248 538.40625 C 1526.4746 537.71368 1526.7362 537.03994 1527.0352 536.38672 C 1527.3251 535.72563 1527.642 535.06924 1527.9863 534.41602 C 1528.0135 534.33731 1528.055 534.26993 1528.1094 534.21484 C 1528.1909 534.08892 1528.3042 534.04659 1528.4492 534.08594 C 1528.7573 534.15677 1528.9932 534.30882 1529.1562 534.54492 C 1529.2107 534.61575 1529.2152 534.70622 1529.1699 534.81641 L 1528.6523 535.95117 C 1528.4893 536.32107 1528.3272 536.6945 1528.1641 537.07227 C 1528.1369 537.11949 1528.123 537.17337 1528.123 537.23633 L 1528.2441 537.10742 C 1528.4888 536.83197 1528.7339 536.56055 1528.9785 536.29297 C 1529.2232 536.02538 1529.4775 535.75782 1529.7402 535.49023 C 1529.8671 535.35644 1530.0035 535.22938 1530.1484 535.11133 C 1530.3025 534.98541 1530.4507 534.85645 1530.5957 534.72266 C 1530.6954 534.62034 1530.7949 534.51063 1530.8945 534.39258 C 1530.9489 534.32962 1530.9996 534.2661 1531.0449 534.20312 L 1531.207 534.01367 C 1531.2478 533.96252 1531.2969 533.9298 1531.3535 533.91406 z M 1537.3906 534.46289 C 1537.2366 534.49437 1537.0837 534.55406 1536.9297 534.64062 C 1536.7847 534.72721 1536.6483 534.82921 1536.5215 534.94727 C 1536.3946 535.05745 1536.2767 535.17486 1536.168 535.30078 C 1536.0592 535.4267 1535.9644 535.54027 1535.8828 535.64258 C 1535.7016 535.86294 1535.5375 536.09202 1535.3926 536.32812 C 1535.2567 536.55637 1535.1268 536.79698 1535 537.04883 L 1535.0254 537.07227 L 1535.3516 536.92969 C 1535.6959 536.75654 1536.0147 536.56406 1536.3047 536.35156 C 1536.5946 536.1312 1536.847 535.87133 1537.0645 535.57227 C 1537.146 535.46208 1537.2198 535.34852 1537.2832 535.23047 C 1537.3466 535.10455 1537.3908 534.97364 1537.418 534.83984 C 1537.4361 534.77688 1537.4453 534.7153 1537.4453 534.65234 C 1537.4544 534.58938 1537.4359 534.52585 1537.3906 534.46289 z M 1554.9082 534.46289 C 1554.7542 534.49437 1554.6013 534.55406 1554.4473 534.64062 C 1554.3023 534.72721 1554.1659 534.82921 1554.0391 534.94727 C 1553.9122 535.05745 1553.7943 535.17486 1553.6855 535.30078 C 1553.5768 535.4267 1553.4819 535.54027 1553.4004 535.64258 C 1553.2192 535.86294 1553.0551 536.09202 1552.9102 536.32812 C 1552.7742 536.55637 1552.6425 536.79698 1552.5156 537.04883 L 1552.543 537.07227 L 1552.8691 536.92969 C 1553.2134 536.75654 1553.5304 536.56406 1553.8203 536.35156 C 1554.1103 536.1312 1554.3646 535.87133 1554.582 535.57227 C 1554.6636 535.46208 1554.7374 535.34852 1554.8008 535.23047 C 1554.8642 535.10455 1554.9084 534.97364 1554.9355 534.83984 C 1554.9537 534.77688 1554.9629 534.7153 1554.9629 534.65234 C 1554.972 534.58938 1554.9535 534.52585 1554.9082 534.46289 z M 1561.1836 535.00391 C 1561.0726 534.99013 1560.9576 534.99397 1560.8398 535.01758 C 1560.5137 535.08841 1560.2013 535.21547 1559.9023 535.39648 C 1559.4674 535.67194 1559.1017 535.98954 1558.8027 536.35156 C 1558.5128 536.71359 1558.2631 537.10822 1558.0547 537.5332 C 1557.9641 537.70635 1557.8949 537.89114 1557.8496 538.08789 C 1557.8224 538.1902 1557.8152 538.29222 1557.8242 538.39453 C 1557.8242 538.48897 1557.8592 538.58329 1557.9316 538.67773 C 1558.2397 538.59903 1558.5751 538.42579 1558.9375 538.1582 C 1559.3724 537.85914 1559.7677 537.52804 1560.1211 537.16602 C 1560.4835 536.79612 1560.8215 536.41499 1561.1387 536.02148 C 1561.1568 535.99787 1561.1752 535.96128 1561.1934 535.91406 L 1561.3574 535.51367 C 1561.4118 535.37201 1561.4606 535.2334 1561.5059 535.09961 C 1561.4017 535.04845 1561.2946 535.01768 1561.1836 535.00391 z M 1573.5508 537.63867 C 1573.4058 537.72524 1573.2668 537.81187 1573.1309 537.89844 C 1572.9949 537.98501 1572.8632 538.08318 1572.7363 538.19336 C 1572.6185 538.27993 1572.5052 538.37425 1572.3965 538.47656 C 1572.2968 538.57887 1572.1973 538.68474 1572.0977 538.79492 C 1571.9799 538.9051 1571.8942 539.05911 1571.8398 539.25586 C 1572.2295 539.05124 1572.5556 538.81061 1572.8184 538.53516 C 1573.0811 538.25183 1573.3243 537.95348 1573.5508 537.63867 z M 1579.8359 538.8125 C 1579.8088 538.85185 1579.7784 538.89229 1579.7422 538.93164 C 1579.715 538.97099 1579.6827 539.00948 1579.6465 539.04883 L 1579.1289 539.75781 C 1578.8208 540.15919 1578.5639 540.56725 1578.3555 540.98438 C 1578.2649 541.16539 1578.1792 541.34633 1578.0977 541.52734 C 1578.0252 541.70836 1577.9791 541.9028 1577.9609 542.10742 C 1577.9519 542.20973 1577.9519 542.31175 1577.9609 542.41406 C 1577.9791 542.51637 1578.0206 542.61839 1578.084 542.7207 L 1578.3281 542.51953 C 1578.4731 542.37 1578.5956 542.21214 1578.6953 542.04688 C 1578.804 541.88946 1578.8989 541.72392 1578.9805 541.55078 C 1579.1889 541.10218 1579.351 540.64983 1579.4688 540.19336 C 1579.5956 539.73689 1579.732 539.28069 1579.877 538.82422 C 1579.8679 538.82422 1579.8587 538.82037 1579.8496 538.8125 L 1579.8359 538.8125 z M 1528.7559 544.29688 L 1529.6543 544.29688 L 1529.6543 551.65625 L 1530.5 550.74414 L 1533.5996 547.69727 L 1534.7305 547.69727 L 1535.3555 547.69727 L 1537.8711 554.50977 L 1540.2363 547.69727 L 1541.2031 547.69727 L 1542.1055 547.69727 L 1542.1055 545.62305 L 1543.0039 545.62305 L 1543.0039 547.69727 L 1544.6797 547.69727 L 1544.6797 548.42969 L 1543.0039 548.42969 L 1543.0039 553.82812 C 1543.0039 554.27734 1543.0825 554.61241 1543.2422 554.83203 C 1543.4069 555.05165 1543.6793 555.16016 1544.0586 555.16016 C 1544.2083 555.16016 1544.4507 555.13585 1544.7852 555.08594 L 1544.8223 555.82031 C 1544.5877 555.90516 1544.2695 555.94727 1543.8652 555.94727 C 1543.2513 555.94727 1542.803 555.7704 1542.5234 555.41602 C 1542.2439 555.05664 1542.1055 554.52973 1542.1055 553.83594 L 1542.1055 548.42969 L 1540.9355 548.42969 L 1537.7441 557.17578 L 1537.5645 557.59375 C 1537.1202 558.57704 1536.4342 559.06836 1535.5059 559.06836 C 1535.2912 559.06836 1535.061 559.03472 1534.8164 558.96484 L 1534.8086 558.22266 L 1535.2734 558.26758 C 1535.7127 558.26758 1536.0664 558.15907 1536.3359 557.93945 C 1536.6105 557.72483 1536.8435 557.35135 1537.0332 556.82227 L 1537.4297 555.73047 L 1534.4727 547.95312 L 1531.2949 551.11133 L 1535.0312 555.79688 L 1533.959 555.79688 L 1530.6797 551.7168 L 1529.6543 552.70508 L 1529.6543 555.79688 L 1528.7559 555.79688 L 1528.7559 544.29688 z M 1578.0039 544.29688 L 1578.9023 544.29688 L 1578.9023 551.65625 L 1579.748 550.74414 L 1582.8477 547.69727 L 1583.9785 547.69727 L 1580.543 551.11133 L 1584.2773 555.79688 L 1583.207 555.79688 L 1579.9277 551.7168 L 1578.9023 552.70508 L 1578.9023 555.79688 L 1578.0039 555.79688 L 1578.0039 544.29688 z M 1575.1211 544.74609 C 1575.3108 544.74609 1575.4605 544.80599 1575.5703 544.92578 C 1575.6851 545.04058 1575.7422 545.18381 1575.7422 545.35352 C 1575.7422 545.52322 1575.6851 545.6645 1575.5703 545.7793 C 1575.4605 545.8941 1575.3108 545.95117 1575.1211 545.95117 C 1574.9314 545.95117 1574.7817 545.8941 1574.6719 545.7793 C 1574.5621 545.6645 1574.5078 545.52322 1574.5078 545.35352 C 1574.5078 545.18381 1574.5621 545.04058 1574.6719 544.92578 C 1574.7817 544.80599 1574.9314 544.74609 1575.1211 544.74609 z M 1510.3613 544.89648 L 1511.582 544.89648 L 1515.6035 554.51758 L 1519.6387 544.89648 L 1520.8652 544.89648 L 1520.8652 555.79688 L 1519.9453 555.79688 L 1519.9453 551.05078 L 1520.0195 546.18359 L 1515.9629 555.79688 L 1515.25 555.79688 L 1511.207 546.2207 L 1511.2832 551.02148 L 1511.2832 555.79688 L 1510.3613 555.79688 L 1510.3613 544.89648 z M 1556.7715 544.89648 L 1559.9902 544.89648 C 1561.1582 544.89648 1562.0445 545.13889 1562.6484 545.62305 C 1563.2524 546.10221 1563.5547 546.80968 1563.5547 547.74805 C 1563.5547 548.31207 1563.3993 548.80534 1563.0898 549.22461 C 1562.7854 549.63889 1562.3661 549.93555 1561.832 550.11523 C 1562.4659 550.25499 1562.975 550.56662 1563.3594 551.05078 C 1563.7487 551.53494 1563.9434 552.09462 1563.9434 552.72852 C 1563.9434 553.69184 1563.6317 554.44423 1563.0078 554.98828 C 1562.3889 555.52734 1561.526 555.79688 1560.418 555.79688 L 1556.7715 555.79688 L 1556.7715 544.89648 z M 1557.6914 545.68164 L 1557.6914 549.78516 L 1560.207 549.78516 C 1560.9757 549.77018 1561.571 549.59049 1561.9902 549.24609 C 1562.4145 548.8967 1562.625 548.39041 1562.625 547.72656 C 1562.625 547.02778 1562.406 546.51302 1561.9668 546.18359 C 1561.5326 545.84918 1560.8737 545.68164 1559.9902 545.68164 L 1557.6914 545.68164 z M 1548.4648 547.54688 C 1549.3683 547.54688 1550.0786 547.77431 1550.5977 548.22852 C 1551.1217 548.67773 1551.3913 549.30664 1551.4062 550.11523 L 1551.4062 553.94727 C 1551.4062 554.7309 1551.4896 555.31771 1551.6543 555.70703 L 1551.6543 555.79688 L 1550.6953 555.79688 C 1550.6055 555.54232 1550.5484 555.16515 1550.5234 554.66602 C 1550.209 555.0753 1549.8075 555.39258 1549.3184 555.61719 C 1548.8342 555.83681 1548.3194 555.94727 1547.7754 555.94727 C 1546.9967 555.94727 1546.365 555.72917 1545.8809 555.29492 C 1545.4017 554.86068 1545.1621 554.31228 1545.1621 553.64844 C 1545.1621 552.85981 1545.4907 552.23655 1546.1445 551.77734 C 1546.8034 551.31814 1547.7177 551.08789 1548.8906 551.08789 L 1550.5156 551.08789 L 1550.5156 550.16797 C 1550.5156 549.58898 1550.3359 549.13411 1549.9766 548.80469 C 1549.6222 548.47027 1549.1037 548.30273 1548.4199 548.30273 C 1547.796 548.30273 1547.2784 548.46181 1546.8691 548.78125 C 1546.4599 549.10069 1546.2559 549.48633 1546.2559 549.93555 L 1545.3574 549.92773 C 1545.3574 549.28385 1545.6569 548.727 1546.2559 548.25781 C 1546.8548 547.78364 1547.5914 547.54687 1548.4648 547.54688 z M 1569.0801 547.54688 C 1570.1582 547.54687 1571.0304 547.92687 1571.6992 548.68555 C 1572.3681 549.43924 1572.7031 550.43967 1572.7031 551.6875 L 1572.7031 551.875 C 1572.7031 552.65864 1572.5506 553.36328 1572.2461 553.99219 C 1571.9466 554.6161 1571.5237 555.09809 1570.9746 555.4375 C 1570.4256 555.77691 1569.7975 555.94727 1569.0938 555.94727 C 1568.0206 555.94727 1567.1484 555.5701 1566.4746 554.81641 C 1565.8058 554.05773 1565.4707 553.05447 1565.4707 551.80664 L 1565.4707 551.62695 C 1565.4707 550.84831 1565.6204 550.14735 1565.9199 549.52344 C 1566.2244 548.89952 1566.6521 548.41471 1567.2012 548.07031 C 1567.7552 547.72092 1568.3813 547.54688 1569.0801 547.54688 z M 1588.6348 547.54688 C 1589.7129 547.54687 1590.587 547.92687 1591.2559 548.68555 C 1591.9247 549.43924 1592.2598 550.43967 1592.2598 551.6875 L 1592.2598 551.875 C 1592.2598 552.65864 1592.1072 553.36328 1591.8027 553.99219 C 1591.5033 554.6161 1591.0783 555.09809 1590.5293 555.4375 C 1589.9803 555.77691 1589.3542 555.94727 1588.6504 555.94727 C 1587.5773 555.94727 1586.7031 555.5701 1586.0293 554.81641 C 1585.3605 554.05773 1585.0273 553.05447 1585.0273 551.80664 L 1585.0273 551.62695 C 1585.0273 550.84831 1585.1771 550.14735 1585.4766 549.52344 C 1585.781 548.89952 1586.2068 548.41471 1586.7559 548.07031 C 1587.3099 547.72092 1587.936 547.54688 1588.6348 547.54688 z M 1521.5215 547.69727 L 1522.502 547.69727 L 1525.0176 554.50977 L 1527.3828 547.69727 L 1528.3496 547.69727 L 1524.8906 557.17578 L 1524.7109 557.59375 C 1524.2667 558.57704 1523.5788 559.06836 1522.6504 559.06836 C 1522.4358 559.06836 1522.2075 559.03472 1521.9629 558.96484 L 1521.9551 558.22266 L 1522.4199 558.26758 C 1522.8592 558.26758 1523.2129 558.15907 1523.4824 557.93945 C 1523.7569 557.72483 1523.9881 557.35135 1524.1777 556.82227 L 1524.5762 555.73047 L 1521.5215 547.69727 z M 1574.6641 547.69727 L 1575.5625 547.69727 L 1575.5625 555.79688 L 1574.6641 555.79688 L 1574.6641 547.69727 z M 94.199219 547.94727 L 108.7207 547.94727 L 108.7207 550.94727 L 94.199219 550.94727 L 94.199219 547.94727 z M 1569.0801 548.31055 C 1568.2815 548.31055 1567.6291 548.625 1567.125 549.25391 C 1566.6209 549.87782 1566.3691 550.69575 1566.3691 551.70898 L 1566.3691 551.875 C 1566.3691 552.84332 1566.6181 553.6378 1567.1172 554.26172 C 1567.6213 554.88064 1568.2802 555.19141 1569.0938 555.19141 C 1569.9023 555.19141 1570.5575 554.88064 1571.0566 554.26172 C 1571.5608 553.6378 1571.8125 552.81706 1571.8125 551.79883 L 1571.8125 551.62695 C 1571.8125 551.00803 1571.6984 550.44184 1571.4688 549.92773 C 1571.2391 549.41363 1570.9162 549.01584 1570.502 548.73633 C 1570.0877 548.45182 1569.6141 548.31055 1569.0801 548.31055 z M 1588.6348 548.31055 C 1587.8362 548.31055 1587.1858 548.625 1586.6816 549.25391 C 1586.1775 549.87782 1585.9258 550.69575 1585.9258 551.70898 L 1585.9258 551.875 C 1585.9258 552.84332 1586.1747 553.6378 1586.6738 554.26172 C 1587.178 554.88064 1587.8368 555.19141 1588.6504 555.19141 C 1589.459 555.19141 1590.1122 554.88064 1590.6113 554.26172 C 1591.1155 553.6378 1591.3691 552.81706 1591.3691 551.79883 L 1591.3691 551.62695 C 1591.3691 551.00803 1591.253 550.44184 1591.0234 549.92773 C 1590.7938 549.41363 1590.4729 549.01584 1590.0586 548.73633 C 1589.6443 548.45182 1589.1688 548.31055 1588.6348 548.31055 z M 1557.6914 550.55664 L 1557.6914 555.01953 L 1560.4551 555.01953 C 1561.2437 555.01953 1561.867 554.81923 1562.3262 554.41992 C 1562.7904 554.01562 1563.0234 553.45595 1563.0234 552.74219 C 1563.0234 552.06836 1562.7997 551.53776 1562.3555 551.14844 C 1561.9162 550.75412 1561.3079 550.55664 1560.5293 550.55664 L 1557.6914 550.55664 z M 1548.9141 551.77734 C 1548.0206 551.78733 1547.3225 551.95204 1546.8184 552.27148 C 1546.3142 552.58594 1546.0605 553.02018 1546.0605 553.57422 C 1546.0605 554.02843 1546.2281 554.4056 1546.5625 554.70508 C 1546.9019 555.00456 1547.3418 555.1543 1547.8809 555.1543 C 1548.4798 555.1543 1549.0132 555.00825 1549.4824 554.71875 C 1549.9566 554.42925 1550.301 554.04275 1550.5156 553.55859 L 1550.5156 551.77734 L 1548.9141 551.77734 z "
       style="display:inline;fill:#17216a;fill-opacity:1;stroke:none;stroke-width:2;stroke-linecap:butt;stroke-linejoin:miter;stroke-miterlimit:5;stroke-dasharray:none;stroke-opacity:1;paint-order:fill markers stroke" />
    <path
       id="rect8427"
       d="m 18.793213,-16.081787 v 8.9978024 h 0.476074 v -8.9978024 z m 0,9.5603024 v 8.8125 h 0.476074 v -8.8125 z m 0,9.3749999 v 8.8124997 h 0.476074 V 2.8535153 Z m 0,9.3749997 v 8.8125 h 0.476074 v -8.8125 z m 0,9.375 v 18.139892 h 0.476074 V 21.603515 Z m 0,18.702392 v 8.8125 h 0.476074 v -8.8125 z m 0,9.375 v 8.8125 h 0.476074 v -8.8125 z m 0,9.375 v 8.809206 h 0.476074 v -8.809206 z m 0,9.371706 v 8.8125 h 0.476074 v -8.8125 z m 0,9.375 v 8.8125 h 0.476074 v -8.8125 z m 0,9.375 v 3.904174 h 0.476074 v -3.904174 z"
       style="display:inline;fill:#ffffff;fill-opacity:1;fill-rule:evenodd;stroke:none;stroke-width:0.08623065" />
    <path
       id="rect8429"
       d="m 0.04321289,81.230713 v 0.476073 H 37.318725 v -0.476073 z m 37.83801211,0 v 0.476073 h 18.1875 v -0.476073 z m 18.75,0 v 0.476073 h 18.1875 v -0.476073 z m 18.75,0 v 0.476073 h 18.18567 v -0.476073 z m 18.74817,0 v 0.476073 h 18.187495 v -0.476073 z m 18.749995,0 v 0.476073 h 18.1875 v -0.476073 z m 18.75,0 v 0.476073 h 18.1875 v -0.476073 z m 18.75,0 v 0.476073 h 18.1875 v -0.476073 z m 18.75,0 v 0.476073 h 18.1875 v -0.476073 z m 18.75,0 v 0.476073 h 18.18603 v -0.476073 z m 18.74853,0 v 0.476073 h 18.1875 v -0.476073 z m 18.75,0 v 0.476073 h 18.1875 v -0.476073 z m 18.75,0 v 0.476073 h 18.1963 v -0.476073 z m 18.7588,0 v 0.476073 h 18.16406 v -0.476073 z m 18.72656,0 v 0.476073 h 18.3435 v -0.476073 z"
       style="display:inline;fill:#ffffff;fill-rule:evenodd;stroke:none;stroke-width:0.08625;stroke-miterlimit:4;stroke-dasharray:none" />
    <path
       id="path8696"
       style="display:inline;opacity:0.1;fill:#ffffff;fill-opacity:1;stroke:#f9f9f9;stroke-width:0.1875px;stroke-opacity:1"
       d="m 0.09375,-16.21875 v 107.25 m 18.75,-107.25 v 107.25 m 18.750006,-107.25 v 107.25 m 18.749998,-107.25 v 107.25 m 18.75,-107.25 v 107.25 m 18.75,-107.25 v 107.25 m 18.749996,-107.25 v 107.25 m 18.75,-107.25 v 107.25 m 18.75,-107.25 v 107.25 m 18.75,-107.25 v 107.25 m 18.75,-107.25 v 107.25 m 18.75,-107.25 v 107.25 m 18.75,-107.25 v 107.25 m 18.75,-107.25 v 107.25 m 18.75,-107.25 v 107.25 m 18.75,-107.25 v 107.25 M 0.09375,-6.8437491 h 300 m -300,9.3749987 h 300 m -300,9.3750004 h 300 m -300,9.375 h 300 m -300,9.375 h 300 m -300,9.375 h 300 m -300,9.375 h 300 m -300,9.375 h 300 m -300,9.375 h 300 m -300,9.375 h 300 m -300,9.375 h 300" />
    <path
       id="path1470-67"
       d="M 0.02066,37.286872 0,-16.261701 h 299.99998 l -0.0887,22.3979475 -9.99632,4.1534135 -9.99636,14.536962 -9.99637,-6.230127 -19.9927,31.15063 -9.99636,10.38354 -9.99633,-4.153416 -9.99642,-10.383542 -19.99269,12.460251 -9.99636,-4.153418 -9.99634,8.306835 -9.99635,4.153408 -9.99636,2.076717 -9.99636,-4.153416 -9.99636,-16.613668 -9.99635,-6.230125 -9.99636,-2.076708 -9.99636,-31.1506296 -9.99635,14.5369596 -9.996369,-8.306837 -9.996338,2.07671 -9.99636,-4.153417 -9.99636,20.767086 -5.90526,-2.453597 -4.0911,-1.699821 -9.996351,14.536961 -9.99636,-22.843794 -9.99636,10.38354 -9.996353,-4.153414 z"
       style="display:inline;opacity:1;fill:url(#linearGradient7338);fill-opacity:1;stroke:none;stroke-width:1.5;stroke-linecap:butt;stroke-linejoin:miter;stroke-miterlimit:5;stroke-dasharray:none;stroke-dashoffset:0;stroke-opacity:1;paint-order:normal" />
  </g>
  <g
     style="display:inline"
     id="layer9">
    <path
       id="path7870-6"
       d="m 110.07499,9.0122894 11.625,-9.37499982 v 0.1875"
       style="display:inline;fill:none;fill-opacity:1;stroke:none;stroke-width:0.1875px;stroke-linecap:butt;stroke-linejoin:miter;stroke-opacity:1" />
    <text
       xml:space="preserve"
       style="font-style:normal;font-weight:normal;font-size:7.5px;line-height:1.25;font-family:sans-serif;letter-spacing:0px;word-spacing:0px;display:inline;fill:#e6e6e6;fill-opacity:1;stroke:none;stroke-width:0.09375"
       x="111.38805"
       y="-0.88222629"
       id="text7804-4-9"><tspan
         id="tspan7802-5-3"
         x="111.38805"
         y="-0.88222629"
         style="font-style:normal;font-variant:normal;font-weight:300;font-stretch:normal;font-size:4px;line-height:1;font-family:Roboto;-inkscape-font-specification:'Roboto Light';fill:#00d092;fill-opacity:1;stroke-width:0.09375">SELL</tspan></text>
    <path
       id="path8538-7"
       d="m 109.91307,9.2060864 0.0663,-11.2529428 0.0331,0.06629"
       style="display:inline;fill:none;stroke:#00d092;stroke-width:0.1875px;stroke-linecap:butt;stroke-linejoin:miter;stroke-opacity:1" />
    <circle
       r="0.3383185"
       cy="-2.1082852"
       cx="109.98883"
       id="path8433-0-4"
       style="display:inline;opacity:1;fill:#ffffff;fill-opacity:1;fill-rule:evenodd;stroke:#00d092;stroke-width:0.07336304;stroke-linecap:butt;stroke-linejoin:miter;stroke-miterlimit:4;stroke-dasharray:none;stroke-dashoffset:0;stroke-opacity:1;paint-order:normal" />
    <circle
       r="2.6830986"
       cy="9.2232265"
       cx="110.00468"
       id="circle7876-5"
       style="display:inline;opacity:1;fill:none;fill-opacity:1;fill-rule:evenodd;stroke:#ffffff;stroke-width:0.63380283;stroke-linecap:butt;stroke-linejoin:miter;stroke-miterlimit:4;stroke-dasharray:none;stroke-dashoffset:0;stroke-opacity:1;paint-order:normal" />
    <circle
       r="1.5"
       cy="9.2039032"
       cx="109.97746"
       id="circle7878-2"
       style="display:inline;opacity:1;fill:#00d092;fill-opacity:1;fill-rule:evenodd;stroke:none;stroke-width:0.49623907;stroke-linecap:butt;stroke-linejoin:miter;stroke-miterlimit:4;stroke-dasharray:none;stroke-dashoffset:0;stroke-opacity:0;paint-order:normal" />
  </g>
  <g
     id="g7494"
     style="display:inline">
    <path
       style="display:inline;fill:none;fill-opacity:1;stroke:none;stroke-width:0.1875px;stroke-linecap:butt;stroke-linejoin:miter;stroke-opacity:1"
       d="m 30.127729,21.475046 11.625,-9.375 v 0.1875"
       id="path7480" />
    <text
       id="text7484"
       y="11.58053"
       x="31.440786"
       style="font-style:normal;font-weight:normal;font-size:7.5px;line-height:1.25;font-family:sans-serif;letter-spacing:0px;word-spacing:0px;display:inline;fill:#e6e6e6;fill-opacity:1;stroke:none;stroke-width:0.09375"
       xml:space="preserve"><tspan
         style="font-style:normal;font-variant:normal;font-weight:300;font-stretch:normal;font-size:4px;line-height:1;font-family:Roboto;-inkscape-font-specification:'Roboto Light';fill:#00d092;fill-opacity:1;stroke-width:0.09375"
         y="11.58053"
         x="31.440786"
         id="tspan7482">SELL</tspan></text>
    <path
       style="display:inline;fill:none;stroke:#00d092;stroke-width:0.1875px;stroke-linecap:butt;stroke-linejoin:miter;stroke-opacity:1"
       d="m 29.965809,21.668843 0.0663,-11.252943 0.0331,0.06629"
       id="path7486" />
    <circle
       style="display:inline;opacity:1;fill:#ffffff;fill-opacity:1;fill-rule:evenodd;stroke:#00d092;stroke-width:0.07336304;stroke-linecap:butt;stroke-linejoin:miter;stroke-miterlimit:4;stroke-dasharray:none;stroke-dashoffset:0;stroke-opacity:1;paint-order:normal"
       id="circle7488"
       cx="30.041571"
       cy="10.354471"
       r="0.3383185" />
    <circle
       style="display:inline;opacity:1;fill:none;fill-opacity:1;fill-rule:evenodd;stroke:#ffffff;stroke-width:0.63380283;stroke-linecap:butt;stroke-linejoin:miter;stroke-miterlimit:4;stroke-dasharray:none;stroke-dashoffset:0;stroke-opacity:1;paint-order:normal"
       id="circle7490"
       cx="30.057417"
       cy="21.685984"
       r="2.6830986" />
    <circle
       style="display:inline;opacity:1;fill:#00d092;fill-opacity:1;fill-rule:evenodd;stroke:none;stroke-width:0.49623907;stroke-linecap:butt;stroke-linejoin:miter;stroke-miterlimit:4;stroke-dasharray:none;stroke-dashoffset:0;stroke-opacity:0;paint-order:normal"
       id="circle7492"
       cx="30.030203"
       cy="21.66666"
       r="1.5" />
  </g>
  <g
     style="display:inline"
     id="g8084">
    <path
       id="path7870-5"
       d="m 219.59766,46.220696 11.625,-9.375 v 0.1875"
       style="display:inline;fill:none;fill-opacity:1;stroke:none;stroke-width:0.1875px;stroke-linecap:butt;stroke-linejoin:miter;stroke-opacity:1" />
    <text
       xml:space="preserve"
       style="font-style:normal;font-weight:normal;font-size:7.5px;line-height:1.25;font-family:sans-serif;letter-spacing:0px;word-spacing:0px;display:inline;fill:#e6e6e6;fill-opacity:1;stroke:none;stroke-width:0.09375"
       x="220.91072"
       y="36.32618"
       id="text7804-4-4"><tspan
         id="tspan7802-5-7"
         x="220.91072"
         y="36.32618"
         style="font-style:normal;font-variant:normal;font-weight:300;font-stretch:normal;font-size:4px;line-height:1;font-family:Roboto;-inkscape-font-specification:'Roboto Light';fill:#00d092;fill-opacity:1;stroke-width:0.09375">SELL</tspan></text>
    <path
       id="path8538-4"
       d="m 219.43574,46.414493 0.0663,-11.252943 0.0332,0.06629"
       style="display:inline;fill:none;stroke:#00d092;stroke-width:0.1875px;stroke-linecap:butt;stroke-linejoin:miter;stroke-opacity:1" />
    <circle
       r="0.3383185"
       cy="35.100121"
       cx="219.51149"
       id="path8433-0-43"
       style="display:inline;opacity:1;fill:#ffffff;fill-opacity:1;fill-rule:evenodd;stroke:#00d092;stroke-width:0.07336304;stroke-linecap:butt;stroke-linejoin:miter;stroke-miterlimit:4;stroke-dasharray:none;stroke-dashoffset:0;stroke-opacity:1;paint-order:normal" />
    <circle
       r="2.6830986"
       cy="46.431633"
       cx="219.52734"
       id="circle7876-0"
       style="display:inline;opacity:1;fill:none;fill-opacity:1;fill-rule:evenodd;stroke:#ffffff;stroke-width:0.63380283;stroke-linecap:butt;stroke-linejoin:miter;stroke-miterlimit:4;stroke-dasharray:none;stroke-dashoffset:0;stroke-opacity:1;paint-order:normal" />
    <circle
       r="1.5"
       cy="46.412308"
       cx="219.50014"
       id="circle7878-7"
       style="display:inline;opacity:1;fill:#00d092;fill-opacity:1;fill-rule:evenodd;stroke:none;stroke-width:0.49623907;stroke-linecap:butt;stroke-linejoin:miter;stroke-miterlimit:4;stroke-dasharray:none;stroke-dashoffset:0;stroke-opacity:0;paint-order:normal" />
  </g>
  <g
     id="g8252"
     style="display:inline">
    <path
       id="path7870-8"
       d="m 160.16016,68.720696 11.62499,-9.375 v 0.1875"
       style="display:inline;fill:none;fill-opacity:1;stroke:none;stroke-width:0.1875px;stroke-linecap:butt;stroke-linejoin:miter;stroke-opacity:1" />
    <text
       xml:space="preserve"
       style="font-style:normal;font-weight:normal;font-size:7.5px;line-height:1.25;font-family:sans-serif;letter-spacing:0px;word-spacing:0px;display:inline;fill:#ff547e;fill-opacity:1;stroke:none;stroke-width:0.09375"
       x="161.47322"
       y="58.82618"
       id="text7804-4-6"><tspan
         id="tspan7802-5-8"
         x="161.47322"
         y="58.82618"
         style="font-style:normal;font-variant:normal;font-weight:300;font-stretch:normal;font-size:4px;line-height:1;font-family:Roboto;-inkscape-font-specification:'Roboto Light';fill:#ff547e;fill-opacity:1;stroke-width:0.09375">BUY</tspan></text>
    <path
       id="path8538-8"
       d="m 159.99824,68.914493 0.0663,-11.252943 0.0332,0.06629"
       style="display:inline;fill:none;stroke:#ff547e;stroke-width:0.1875px;stroke-linecap:butt;stroke-linejoin:miter;stroke-opacity:1" />
    <circle
       r="0.3383185"
       cy="57.600121"
       cx="160.07399"
       id="path8433-0-431"
       style="display:inline;opacity:1;fill:#ffffff;fill-opacity:1;fill-rule:evenodd;stroke:#00d092;stroke-width:0.07336304;stroke-linecap:butt;stroke-linejoin:miter;stroke-miterlimit:4;stroke-dasharray:none;stroke-dashoffset:0;stroke-opacity:1;paint-order:normal" />
    <circle
       r="2.6830986"
       cy="68.931633"
       cx="160.08984"
       id="circle7876-4"
       style="display:inline;opacity:1;fill:none;fill-opacity:1;fill-rule:evenodd;stroke:#ffffff;stroke-width:0.63380283;stroke-linecap:butt;stroke-linejoin:miter;stroke-miterlimit:4;stroke-dasharray:none;stroke-dashoffset:0;stroke-opacity:1;paint-order:normal" />
    <circle
       r="1.5"
       cy="68.912308"
       cx="160.06264"
       id="circle7878-9"
       style="display:inline;opacity:1;fill:#ff547e;fill-opacity:1;fill-rule:evenodd;stroke:none;stroke-width:0.49623907;stroke-linecap:butt;stroke-linejoin:miter;stroke-miterlimit:4;stroke-dasharray:none;stroke-dashoffset:0;stroke-opacity:0;paint-order:normal" />
  </g>
  <g
     style="display:inline"
     id="g8294">
    <path
       id="path7870-8-2"
       d="m 240.21324,60.745283 11.62499,-9.375 v 0.1875"
       style="display:inline;fill:none;fill-opacity:1;stroke:none;stroke-width:0.1875px;stroke-linecap:butt;stroke-linejoin:miter;stroke-opacity:1" />
    <text
       xml:space="preserve"
       style="font-style:normal;font-weight:normal;font-size:7.5px;line-height:1.25;font-family:sans-serif;letter-spacing:0px;word-spacing:0px;display:inline;fill:#ff547e;fill-opacity:1;stroke:none;stroke-width:0.09375"
       x="241.52631"
       y="47.100773"
       id="text7804-4-6-0"><tspan
         id="tspan7802-5-8-6"
         x="241.52631"
         y="47.100773"
         style="font-style:normal;font-variant:normal;font-weight:300;font-stretch:normal;font-size:4px;line-height:1;font-family:Roboto;-inkscape-font-specification:'Roboto Light';fill:#ff547e;fill-opacity:1;stroke-width:0.09375">BUY</tspan></text>
    <path
       id="path8538-8-8"
       d="m 240.05388,61.042091 0.0625,-15.101014 0.0313,0.08896"
       style="display:inline;fill:none;stroke:#ff547e;stroke-width:0.21091621px;stroke-linecap:butt;stroke-linejoin:miter;stroke-opacity:1" />
    <circle
       r="0.3383185"
       cy="45.874775"
       cx="240.12709"
       id="path8433-0-431-9"
       style="display:inline;opacity:1;fill:#ffffff;fill-opacity:1;fill-rule:evenodd;stroke:#00d092;stroke-width:0.07336304;stroke-linecap:butt;stroke-linejoin:miter;stroke-miterlimit:4;stroke-dasharray:none;stroke-dashoffset:0;stroke-opacity:1;paint-order:normal" />
    <circle
       r="2.6830986"
       cy="60.956219"
       cx="240.14293"
       id="circle7876-4-2"
       style="display:inline;opacity:1;fill:none;fill-opacity:1;fill-rule:evenodd;stroke:#ffffff;stroke-width:0.63380283;stroke-linecap:butt;stroke-linejoin:miter;stroke-miterlimit:4;stroke-dasharray:none;stroke-dashoffset:0;stroke-opacity:1;paint-order:normal" />
    <circle
       r="1.5"
       cy="60.936893"
       cx="240.11572"
       id="circle7878-9-6"
       style="display:inline;opacity:1;fill:#ff547e;fill-opacity:1;fill-rule:evenodd;stroke:none;stroke-width:0.49623907;stroke-linecap:butt;stroke-linejoin:miter;stroke-miterlimit:4;stroke-dasharray:none;stroke-dashoffset:0;stroke-opacity:0;paint-order:normal" />
  </g>
  <g
     style="display:inline"
     id="g8366">
    <path
       id="path7870-8-2-6"
       d="m 280.11216,24.730225 11.625,-9.375001 v 0.1875"
       style="display:inline;fill:none;fill-opacity:1;stroke:none;stroke-width:0.1875px;stroke-linecap:butt;stroke-linejoin:miter;stroke-opacity:1" />
    <text
       xml:space="preserve"
       style="font-style:normal;font-weight:normal;font-size:7.5px;line-height:1.25;font-family:sans-serif;letter-spacing:0px;word-spacing:0px;display:inline;fill:#ff547e;fill-opacity:1;stroke:none;stroke-width:0.09375"
       x="281.42523"
       y="11.085713"
       id="text7804-4-6-0-4"><tspan
         id="tspan7802-5-8-6-9"
         x="281.42523"
         y="11.085713"
         style="font-style:normal;font-variant:normal;font-weight:300;font-stretch:normal;font-size:4px;line-height:1;font-family:Roboto;-inkscape-font-specification:'Roboto Light';fill:#ff547e;fill-opacity:1;stroke-width:0.09375">BUY</tspan></text>
    <path
       id="path8538-8-8-5"
       d="m 279.9528,25.027033 0.0625,-15.1010143 0.0313,0.08896"
       style="display:inline;fill:none;stroke:#ff547e;stroke-width:0.21091619px;stroke-linecap:butt;stroke-linejoin:miter;stroke-opacity:1" />
    <circle
       r="0.3383185"
       cy="9.8597164"
       cx="280.02603"
       id="path8433-0-431-9-0"
       style="display:inline;opacity:1;fill:#ffffff;fill-opacity:1;fill-rule:evenodd;stroke:#00d092;stroke-width:0.07336304;stroke-linecap:butt;stroke-linejoin:miter;stroke-miterlimit:4;stroke-dasharray:none;stroke-dashoffset:0;stroke-opacity:1;paint-order:normal" />
    <circle
       r="2.6830986"
       cy="24.94116"
       cx="280.04187"
       id="circle7876-4-2-4"
       style="display:inline;opacity:1;fill:none;fill-opacity:1;fill-rule:evenodd;stroke:#ffffff;stroke-width:0.63380283;stroke-linecap:butt;stroke-linejoin:miter;stroke-miterlimit:4;stroke-dasharray:none;stroke-dashoffset:0;stroke-opacity:1;paint-order:normal" />
    <circle
       r="1.5"
       cy="24.921833"
       cx="280.01465"
       id="circle7878-9-6-8"
       style="display:inline;opacity:1;fill:#ff547e;fill-opacity:1;fill-rule:evenodd;stroke:none;stroke-width:0.49623907;stroke-linecap:butt;stroke-linejoin:miter;stroke-miterlimit:4;stroke-dasharray:none;stroke-dashoffset:0;stroke-opacity:0;paint-order:normal" />
  </g>
</svg>
